<?xml version="1.0" encoding="UTF-8" standalone="yes"?><!DOCTYPE svg PUBLIC "-//W3C//DTD SVG 1.1//EN" "http://www.w3.org/Graphics/SVG/1.1/DTD/svg11.dtd" [<!ENTITY quot "&#34;"><!ENTITY amp "&#38;"><!ENTITY apos "&#39;"><!ENTITY lt "&#60;"><!ENTITY gt "&#62;"><!ENTITY nbsp "&#160;">]><svg id="DotUML" width="485pt" height="384pt" xmlns="http://www.w3.org/2000/svg" version="1.1" xmlns:xlink="http://www.w3.org/1999/xlink" xmlns:svgjs="http://svgjs.com/svgjs"><defs id="SvgjsDefs23447"></defs><svg width="485pt" height="384pt" viewBox="0.00 0.00 484.64 383.64" xmlns="http://www.w3.org/2000/svg" xmlns:xlink="http://www.w3.org/1999/xlink"><desc>ClassDiagram%20%5Bframe=true%20framecolor=steelblue%20label=%22Class%20Diagram%22%5D%20%7B%0A%20abstract%20class%20User%20%7B%0A%20%09public%20inherit%20ActiveRecord%0A%20%7D%0A%20class%20Space%20%7B%0A%20%09public%20inherit%20ActiveRecord%0A%20%7D%0A%20class%20Booking%20%7B%0A%20%20public%20inherit%20ActiveRecord%0A%20%7D%0A%20class%20BookingReceived%20%7B%0A%20%20public%20booking_id%0A%20%20public%20space_name%0A%20%20public%20space_price%0A%20%20public%20space_description%0A%20%20public%20space_address%0A%20%20public%20space_city%0A%20%20public%20space_country%0A%20%20public%20space_postcode%0A%20%20public%20booking_confirmation%0A%20%20public%20booking_start_date%0A%20%20public%20booking_end_date%0A%20%7D%0A%20%20class%20BookingRequested%20%7B%0A%20%20public%20space_name%0A%20%20public%20space_price%0A%20%20public%20space_description%0A%20%20public%20space_address%0A%20%20public%20space_city%0A%20%20public%20space_country%0A%20%20public%20space_postcode%0A%20%20public%20booking_confirmation%0A%20%20public%20booking_start_date%0A%20%20public%20booking_end_date%0A%20%7D%0A%20Space%20-g-%3E%20User%0A%20Booking%20-g-%3E%20Space%0A%20Booking%20-g-%3E%20User%0A%20BookingRequested%20-g-%3E%20Space%0A%20BookingReceived%20-g-%3E%20Space%0A%20BookingRequested%20-g-%3E%20Booking%0A%20BookingReceived%20-g-%3E%20Booking%0A%7D%0A</desc><g id="graph0" class="graph dotUmlFrame dotUmlFrameColorsteelblue" transform="scale(1 1) rotate(0) translate(4.32 379.32)"><polygon fill="#ffffff" stroke="transparent" points="-4.32,4.32 -4.32,-379.32 480.32,-379.32 480.32,4.32 -4.32,4.32"></polygon><text text-anchor="middle" x="41.996883392333984" y="-369" font-family="monospace,monospace" font-size="10.00" fill="#000000" svgjs:data="{&quot;leading&quot;:&quot;1.3&quot;}">Class Diagram</text><g id="node1" class=""><g id="a_node1"><a xlink:title=" "><polygon fill="none" stroke="#000000" points=".5,-238 .5,-256 77.5,-256 77.5,-238 .5,-238"></polygon><text text-anchor="start" x="27.002" y="-245" font-family="monospace,monospace" font-weight="bold" font-style="italic" font-size="10.00" fill="#000000" svgjs:data="{&quot;leading&quot;:&quot;1.3&quot;}">User</text><polygon fill="none" stroke="#000000" points=".5,-208 .5,-238 77.5,-238 77.5,-208 .5,-208"></polygon><text text-anchor="start" x="3.5" y="-226" font-family="monospace,monospace" font-size="10.00" fill="#000000" svgjs:data="{&quot;leading&quot;:&quot;1.3&quot;}">+ inherit</text><text text-anchor="start" x="3.5" y="-214" font-family="monospace,monospace" font-size="10.00" fill="#000000" svgjs:data="{&quot;leading&quot;:&quot;1.3&quot;}">ActiveRecord</text><polygon fill="none" stroke="#000000" points=".5,-202 .5,-208 77.5,-208 77.5,-202 .5,-202"></polygon></a></g></g><g id="node2" class=""><g id="a_node2"><a xlink:title=" "><polygon fill="none" stroke="#000000" points="113.5,-192 113.5,-210 190.5,-210 190.5,-192 113.5,-192"></polygon><text text-anchor="start" x="137.0025" y="-199" font-family="monospace,monospace" font-weight="bold" font-size="10.00" fill="#000000" svgjs:data="{&quot;leading&quot;:&quot;1.3&quot;}">Space</text><polygon fill="none" stroke="#000000" points="113.5,-162 113.5,-192 190.5,-192 190.5,-162 113.5,-162"></polygon><text text-anchor="start" x="116.5" y="-180" font-family="monospace,monospace" font-size="10.00" fill="#000000" svgjs:data="{&quot;leading&quot;:&quot;1.3&quot;}">+ inherit</text><text text-anchor="start" x="116.5" y="-168" font-family="monospace,monospace" font-size="10.00" fill="#000000" svgjs:data="{&quot;leading&quot;:&quot;1.3&quot;}">ActiveRecord</text><polygon fill="none" stroke="#000000" points="113.5,-156 113.5,-162 190.5,-162 190.5,-156 113.5,-156"></polygon></a></g></g><g id="edge1" class=""><g id="a_edge1"><a xlink:title=" "><path fill="none" stroke="#000000" d="M86.4361,-209.4862C95.2055,-205.9164 104.2567,-202.2318 112.718,-198.7873"></path><polygon fill="none" stroke="#000000" points="85.0145,-206.2859 77.0721,-213.2981 87.6538,-212.7693 85.0145,-206.2859"></polygon></a></g></g><g id="node3" class=""><g id="a_node3"><a xlink:title=" "><polygon fill="none" stroke="#000000" points="226.5,-284 226.5,-302 303.5,-302 303.5,-284 226.5,-284"></polygon><text text-anchor="start" x="244.0035" y="-291" font-family="monospace,monospace" font-weight="bold" font-size="10.00" fill="#000000" svgjs:data="{&quot;leading&quot;:&quot;1.3&quot;}">Booking</text><polygon fill="none" stroke="#000000" points="226.5,-254 226.5,-284 303.5,-284 303.5,-254 226.5,-254"></polygon><text text-anchor="start" x="229.5" y="-272" font-family="monospace,monospace" font-size="10.00" fill="#000000" svgjs:data="{&quot;leading&quot;:&quot;1.3&quot;}">+ inherit</text><text text-anchor="start" x="229.5" y="-260" font-family="monospace,monospace" font-size="10.00" fill="#000000" svgjs:data="{&quot;leading&quot;:&quot;1.3&quot;}">ActiveRecord</text><polygon fill="none" stroke="#000000" points="226.5,-248 226.5,-254 303.5,-254 303.5,-248 226.5,-248"></polygon></a></g></g><g id="edge3" class=""><g id="a_edge3"><a xlink:title=" "><path fill="none" stroke="#000000" d="M86.9701,-238.8656C128.4188,-247.3021 187.2908,-259.2849 225.6869,-267.1"></path><polygon fill="none" stroke="#000000" points="87.5912,-235.4203 77.094,-236.8554 86.195,-242.2797 87.5912,-235.4203"></polygon></a></g></g><g id="edge2" class=""><g id="a_edge2"><a xlink:title=" "><path fill="none" stroke="#000000" d="M192.8666,-216.679C205.4332,-226.9102 219.0782,-238.0194 231.0549,-247.7704"></path><polygon fill="none" stroke="#000000" points="194.7572,-213.7049 184.7925,-210.1054 190.3376,-219.1333 194.7572,-213.7049"></polygon></a></g></g><g id="node4" class=""><g id="a_node4"><a xlink:title=" "><polygon fill="none" stroke="#000000" points="339.5,-144 339.5,-162 476.5,-162 476.5,-144 339.5,-144"></polygon><text text-anchor="start" x="363.0075" y="-151" font-family="monospace,monospace" font-weight="bold" font-size="10.00" fill="#000000" svgjs:data="{&quot;leading&quot;:&quot;1.3&quot;}">BookingReceived</text><polygon fill="none" stroke="#000000" points="339.5,-6 339.5,-144 476.5,-144 476.5,-6 339.5,-6"></polygon><text text-anchor="start" x="342.5" y="-132" font-family="monospace,monospace" font-size="10.00" fill="#000000" svgjs:data="{&quot;leading&quot;:&quot;1.3&quot;}">+ booking_id</text><text text-anchor="start" x="342.5" y="-120" font-family="monospace,monospace" font-size="10.00" fill="#000000" svgjs:data="{&quot;leading&quot;:&quot;1.3&quot;}">+ space_name</text><text text-anchor="start" x="342.5" y="-108" font-family="monospace,monospace" font-size="10.00" fill="#000000" svgjs:data="{&quot;leading&quot;:&quot;1.3&quot;}">+ space_price</text><text text-anchor="start" x="342.5" y="-96" font-family="monospace,monospace" font-size="10.00" fill="#000000" svgjs:data="{&quot;leading&quot;:&quot;1.3&quot;}">+ space_description</text><text text-anchor="start" x="342.5" y="-84" font-family="monospace,monospace" font-size="10.00" fill="#000000" svgjs:data="{&quot;leading&quot;:&quot;1.3&quot;}">+ space_address</text><text text-anchor="start" x="342.5" y="-72" font-family="monospace,monospace" font-size="10.00" fill="#000000" svgjs:data="{&quot;leading&quot;:&quot;1.3&quot;}">+ space_city</text><text text-anchor="start" x="342.5" y="-60" font-family="monospace,monospace" font-size="10.00" fill="#000000" svgjs:data="{&quot;leading&quot;:&quot;1.3&quot;}">+ space_country</text><text text-anchor="start" x="342.5" y="-48" font-family="monospace,monospace" font-size="10.00" fill="#000000" svgjs:data="{&quot;leading&quot;:&quot;1.3&quot;}">+ space_postcode</text><text text-anchor="start" x="342.5" y="-36" font-family="monospace,monospace" font-size="10.00" fill="#000000" svgjs:data="{&quot;leading&quot;:&quot;1.3&quot;}">+ booking_confirmation</text><text text-anchor="start" x="342.5" y="-24" font-family="monospace,monospace" font-size="10.00" fill="#000000" svgjs:data="{&quot;leading&quot;:&quot;1.3&quot;}">+ booking_start_date</text><text text-anchor="start" x="342.5" y="-12" font-family="monospace,monospace" font-size="10.00" fill="#000000" svgjs:data="{&quot;leading&quot;:&quot;1.3&quot;}">+ booking_end_date</text><polygon fill="none" stroke="#000000" points="339.5,0 339.5,-6 476.5,-6 476.5,0 339.5,0"></polygon></a></g></g><g id="edge5" class=""><g id="a_edge5"><a xlink:title=" "><path fill="none" stroke="#000000" d="M199.7127,-163.7903C238.9927,-148.1396 294.9466,-125.8455 338.8964,-108.3343"></path><polygon fill="none" stroke="#000000" points="198.0972,-160.6663 190.103,-167.6191 200.6882,-167.1691 198.0972,-160.6663"></polygon></a></g></g><g id="node5" class=""><g id="a_node5"><a xlink:title=" "><polygon fill="none" stroke="#000000" points="339.5,-337 339.5,-355 476.5,-355 476.5,-337 339.5,-337"></polygon><text text-anchor="start" x="360.008" y="-344" font-family="monospace,monospace" font-weight="bold" font-size="10.00" fill="#000000" svgjs:data="{&quot;leading&quot;:&quot;1.3&quot;}">BookingRequested</text><polygon fill="none" stroke="#000000" points="339.5,-211 339.5,-337 476.5,-337 476.5,-211 339.5,-211"></polygon><text text-anchor="start" x="342.5" y="-325" font-family="monospace,monospace" font-size="10.00" fill="#000000" svgjs:data="{&quot;leading&quot;:&quot;1.3&quot;}">+ space_name</text><text text-anchor="start" x="342.5" y="-313" font-family="monospace,monospace" font-size="10.00" fill="#000000" svgjs:data="{&quot;leading&quot;:&quot;1.3&quot;}">+ space_price</text><text text-anchor="start" x="342.5" y="-301" font-family="monospace,monospace" font-size="10.00" fill="#000000" svgjs:data="{&quot;leading&quot;:&quot;1.3&quot;}">+ space_description</text><text text-anchor="start" x="342.5" y="-289" font-family="monospace,monospace" font-size="10.00" fill="#000000" svgjs:data="{&quot;leading&quot;:&quot;1.3&quot;}">+ space_address</text><text text-anchor="start" x="342.5" y="-277" font-family="monospace,monospace" font-size="10.00" fill="#000000" svgjs:data="{&quot;leading&quot;:&quot;1.3&quot;}">+ space_city</text><text text-anchor="start" x="342.5" y="-265" font-family="monospace,monospace" font-size="10.00" fill="#000000" svgjs:data="{&quot;leading&quot;:&quot;1.3&quot;}">+ space_country</text><text text-anchor="start" x="342.5" y="-253" font-family="monospace,monospace" font-size="10.00" fill="#000000" svgjs:data="{&quot;leading&quot;:&quot;1.3&quot;}">+ space_postcode</text><text text-anchor="start" x="342.5" y="-241" font-family="monospace,monospace" font-size="10.00" fill="#000000" svgjs:data="{&quot;leading&quot;:&quot;1.3&quot;}">+ booking_confirmation</text><text text-anchor="start" x="342.5" y="-229" font-family="monospace,monospace" font-size="10.00" fill="#000000" svgjs:data="{&quot;leading&quot;:&quot;1.3&quot;}">+ booking_start_date</text><text text-anchor="start" x="342.5" y="-217" font-family="monospace,monospace" font-size="10.00" fill="#000000" svgjs:data="{&quot;leading&quot;:&quot;1.3&quot;}">+ booking_end_date</text><polygon fill="none" stroke="#000000" points="339.5,-205 339.5,-211 476.5,-211 476.5,-205 339.5,-205"></polygon></a></g></g><g id="edge4" class=""><g id="a_edge4"><a xlink:title=" "><path fill="none" stroke="#000000" d="M199.7127,-201.2681C238.9927,-216.1515 294.9466,-237.3528 338.8964,-254.0057"></path><polygon fill="none" stroke="#000000" points="200.6944,-197.8973 190.103,-197.6269 198.214,-204.4431 200.6944,-197.8973"></polygon></a></g></g><g id="edge7" class=""><g id="a_edge7"><a xlink:title=" "><path fill="none" stroke="#000000" d="M290.749,-239.3894C306.6895,-217.7639 327.7244,-189.227 347.5438,-162.3392"></path><polygon fill="none" stroke="#000000" points="287.8012,-237.4898 284.6851,-247.616 293.4359,-241.6432 287.8012,-237.4898"></polygon></a></g></g><g id="edge6" class=""><g id="a_edge6"><a xlink:title=" "><path fill="none" stroke="#000000" d="M313.308,-276.7066C321.5068,-276.9932 330.1497,-277.2954 338.7397,-277.5958"></path><polygon fill="none" stroke="#000000" points="313.3141,-273.2047 303.1979,-276.3531 313.0694,-280.2005 313.3141,-273.2047"></polygon></a></g></g><rect id="SvgjsRect23472" width="484.32" height="383.32" x="-4" y="-379" fill="none" stroke="steelblue" stroke-width="1"></rect><path id="SvgjsPath23511" d="M-4 -379 H87.99376678466797 V-372 L80.99376678466797 -365 L-4 -365 z" fill="none" stroke="steelblue" stroke-width="1"></path></g></svg></svg>