<?xml version="1.0" encoding="UTF-8" standalone="yes"?><!DOCTYPE svg PUBLIC "-//W3C//DTD SVG 1.1//EN" "http://www.w3.org/Graphics/SVG/1.1/DTD/svg11.dtd" [<!ENTITY quot "&#34;"><!ENTITY amp "&#38;"><!ENTITY apos "&#39;"><!ENTITY lt "&#60;"><!ENTITY gt "&#62;"><!ENTITY nbsp "&#160;">]><svg id="DotUML" width="342pt" height="216pt" xmlns="http://www.w3.org/2000/svg" version="1.1" xmlns:xlink="http://www.w3.org/1999/xlink" xmlns:svgjs="http://svgjs.com/svgjs"><defs id="SvgjsDefs23552"></defs><svg width="342pt" height="216pt" viewBox="0.00 0.00 341.64 215.64" xmlns="http://www.w3.org/2000/svg" xmlns:xlink="http://www.w3.org/1999/xlink"><desc>ClassDiagram%20%5Bframe=true%20framecolor=steelblue%20label=%22DB%20Diagram%22%5D%20%7B%0A%20class%20Users%20%7B%0A%20%20private%20user_id%0A%20%20private%20email%0A%20%20private%20password%0A%20%20private%20name%0A%20%7D%0A%20class%20Spaces%20%7B%0A%20%20private%20space_id%0A%20%20private%20owner_id%0A%20%20private%20name%0A%20%20private%20price%0A%20%20private%20description%0A%20%20private%20street_address%0A%20%20private%20city%0A%20%20private%20country%0A%20%20private%20postcode%0A%20%7D%0A%20%20class%20Bookings%20%7B%0A%20%20private%20booking_id%0A%20%20private%20customer_id%0A%20%20private%20space_id%20%0A%20%20private%20booking_start%0A%20%20private%20booking_end%0A%20%20private%20confirmation%0A%20%7D%0A%20Spaces%20-g-%3E%20Users%0A%20Bookings%20-g-%3E%20Users%0A%20Bookings%20-g-%3E%20Spaces%0A%7D%0A</desc><g id="graph0" class="graph dotUmlFrame dotUmlFrameColorsteelblue" transform="scale(1 1) rotate(0) translate(4.32 211.32)"><polygon fill="#ffffff" stroke="transparent" points="-4.32,4.32 -4.32,-211.32 337.32,-211.32 337.32,4.32 -4.32,4.32"></polygon><text text-anchor="middle" x="32.9995174407959" y="-201" font-family="monospace,monospace" font-size="10.00" fill="#000000" svgjs:data="{&quot;leading&quot;:&quot;1.3&quot;}">DB Diagram</text><g id="node1" class=""><g id="a_node1"><a xlink:title=" "><polygon fill="none" stroke="#000000" points=".5,-72 .5,-90 65.5,-90 65.5,-72 .5,-72"></polygon><text text-anchor="start" x="18.0025" y="-79" font-family="monospace,monospace" font-weight="bold" font-size="10.00" fill="#000000" svgjs:data="{&quot;leading&quot;:&quot;1.3&quot;}">Users</text><polygon fill="none" stroke="#000000" points=".5,-18 .5,-72 65.5,-72 65.5,-18 .5,-18"></polygon><text text-anchor="start" x="3.5" y="-60" font-family="monospace,monospace" font-size="10.00" fill="#000000" svgjs:data="{&quot;leading&quot;:&quot;1.3&quot;}">- user_id</text><text text-anchor="start" x="3.5" y="-48" font-family="monospace,monospace" font-size="10.00" fill="#000000" svgjs:data="{&quot;leading&quot;:&quot;1.3&quot;}">- email</text><text text-anchor="start" x="3.5" y="-36" font-family="monospace,monospace" font-size="10.00" fill="#000000" svgjs:data="{&quot;leading&quot;:&quot;1.3&quot;}">- password</text><text text-anchor="start" x="3.5" y="-24" font-family="monospace,monospace" font-size="10.00" fill="#000000" svgjs:data="{&quot;leading&quot;:&quot;1.3&quot;}">- name</text><polygon fill="none" stroke="#000000" points=".5,-12 .5,-18 65.5,-18 65.5,-12 .5,-12"></polygon></a></g></g><g id="node2" class=""><g id="a_node2"><a xlink:title=" "><polygon fill="none" stroke="#000000" points="101.5,-169 101.5,-187 202.5,-187 202.5,-169 101.5,-169"></polygon><text text-anchor="start" x="134.003" y="-176" font-family="monospace,monospace" font-weight="bold" font-size="10.00" fill="#000000" svgjs:data="{&quot;leading&quot;:&quot;1.3&quot;}">Spaces</text><polygon fill="none" stroke="#000000" points="101.5,-55 101.5,-169 202.5,-169 202.5,-55 101.5,-55"></polygon><text text-anchor="start" x="104.5" y="-157" font-family="monospace,monospace" font-size="10.00" fill="#000000" svgjs:data="{&quot;leading&quot;:&quot;1.3&quot;}">- space_id</text><text text-anchor="start" x="104.5" y="-145" font-family="monospace,monospace" font-size="10.00" fill="#000000" svgjs:data="{&quot;leading&quot;:&quot;1.3&quot;}">- owner_id</text><text text-anchor="start" x="104.5" y="-133" font-family="monospace,monospace" font-size="10.00" fill="#000000" svgjs:data="{&quot;leading&quot;:&quot;1.3&quot;}">- name</text><text text-anchor="start" x="104.5" y="-121" font-family="monospace,monospace" font-size="10.00" fill="#000000" svgjs:data="{&quot;leading&quot;:&quot;1.3&quot;}">- price</text><text text-anchor="start" x="104.5" y="-109" font-family="monospace,monospace" font-size="10.00" fill="#000000" svgjs:data="{&quot;leading&quot;:&quot;1.3&quot;}">- description</text><text text-anchor="start" x="104.5" y="-97" font-family="monospace,monospace" font-size="10.00" fill="#000000" svgjs:data="{&quot;leading&quot;:&quot;1.3&quot;}">- street_address</text><text text-anchor="start" x="104.5" y="-85" font-family="monospace,monospace" font-size="10.00" fill="#000000" svgjs:data="{&quot;leading&quot;:&quot;1.3&quot;}">- city</text><text text-anchor="start" x="104.5" y="-73" font-family="monospace,monospace" font-size="10.00" fill="#000000" svgjs:data="{&quot;leading&quot;:&quot;1.3&quot;}">- country</text><text text-anchor="start" x="104.5" y="-61" font-family="monospace,monospace" font-size="10.00" fill="#000000" svgjs:data="{&quot;leading&quot;:&quot;1.3&quot;}">- postcode</text><polygon fill="none" stroke="#000000" points="101.5,-49 101.5,-55 202.5,-55 202.5,-49 101.5,-49"></polygon></a></g></g><g id="edge1" class=""><g id="a_edge1"><a xlink:title=" "><path fill="none" stroke="#000000" d="M73.8099,-74.2585C82.4791,-79.1395 91.7182,-84.3413 100.6881,-89.3916"></path><polygon fill="none" stroke="#000000" points="75.4482,-71.1643 65.0173,-69.308 72.0139,-77.264 75.4482,-71.1643"></polygon></a></g></g><g id="node3" class=""><g id="a_node3"><a xlink:title=" "><polygon fill="none" stroke="#000000" points="238.5,-84 238.5,-102 333.5,-102 333.5,-84 238.5,-84"></polygon><text text-anchor="start" x="262.004" y="-91" font-family="monospace,monospace" font-weight="bold" font-size="10.00" fill="#000000" svgjs:data="{&quot;leading&quot;:&quot;1.3&quot;}">Bookings</text><polygon fill="none" stroke="#000000" points="238.5,-6 238.5,-84 333.5,-84 333.5,-6 238.5,-6"></polygon><text text-anchor="start" x="241.5" y="-72" font-family="monospace,monospace" font-size="10.00" fill="#000000" svgjs:data="{&quot;leading&quot;:&quot;1.3&quot;}">- booking_id</text><text text-anchor="start" x="241.5" y="-60" font-family="monospace,monospace" font-size="10.00" fill="#000000" svgjs:data="{&quot;leading&quot;:&quot;1.3&quot;}">- customer_id</text><text text-anchor="start" x="241.5" y="-48" font-family="monospace,monospace" font-size="10.00" fill="#000000" svgjs:data="{&quot;leading&quot;:&quot;1.3&quot;}">- space_id</text><text text-anchor="start" x="241.5" y="-36" font-family="monospace,monospace" font-size="10.00" fill="#000000" svgjs:data="{&quot;leading&quot;:&quot;1.3&quot;}">- booking_start</text><text text-anchor="start" x="241.5" y="-24" font-family="monospace,monospace" font-size="10.00" fill="#000000" svgjs:data="{&quot;leading&quot;:&quot;1.3&quot;}">- booking_end</text><text text-anchor="start" x="241.5" y="-12" font-family="monospace,monospace" font-size="10.00" fill="#000000" svgjs:data="{&quot;leading&quot;:&quot;1.3&quot;}">- confirmation</text><polygon fill="none" stroke="#000000" points="238.5,0 238.5,-6 333.5,-6 333.5,0 238.5,0"></polygon></a></g></g><g id="edge2" class=""><g id="a_edge2"><a xlink:title=" "><path fill="none" stroke="#000000" d="M75.0949,-51C120.1653,-51 191.117,-51 237.9741,-51"></path><polygon fill="none" stroke="#000000" points="75.0574,-47.5001 65.0574,-51 75.0573,-54.5001 75.0574,-47.5001"></polygon></a></g></g><g id="edge3" class=""><g id="a_edge3"><a xlink:title=" "><path fill="none" stroke="#000000" d="M211.3314,-88.0843C220.2173,-83.6414 229.2733,-79.1134 237.8646,-74.8177"></path><polygon fill="none" stroke="#000000" points="209.5387,-85.0675 202.1597,-92.6702 212.6692,-91.3285 209.5387,-85.0675"></polygon></a></g></g><rect id="SvgjsRect23567" width="341.32" height="215.32" x="-4" y="-211" fill="none" stroke="steelblue" stroke-width="1"></rect><path id="SvgjsPath23594" d="M-4 -211 H69.9990348815918 V-204 L62.9990348815918 -197 L-4 -197 z" fill="none" stroke="steelblue" stroke-width="1"></path></g></svg></svg>