<?xml version="1.0" encoding="UTF-8" standalone="yes"?><!DOCTYPE svg PUBLIC "-//W3C//DTD SVG 1.1//EN" "http://www.w3.org/Graphics/SVG/1.1/DTD/svg11.dtd" [<!ENTITY quot "&#34;"><!ENTITY amp "&#38;"><!ENTITY apos "&#39;"><!ENTITY lt "&#60;"><!ENTITY gt "&#62;"><!ENTITY nbsp "&#160;">]><svg id="DotUML" width="348pt" height="303pt" xmlns="http://www.w3.org/2000/svg" version="1.1" xmlns:xlink="http://www.w3.org/1999/xlink" xmlns:svgjs="http://svgjs.com/svgjs"><defs id="SvgjsDefs10118"></defs><svg width="348pt" height="303pt" viewBox="0.00 0.00 347.64 302.64" xmlns="http://www.w3.org/2000/svg" xmlns:xlink="http://www.w3.org/1999/xlink"><desc>ClassDiagram%20%5Bframe=true%20framecolor=steelblue%20label=%22DB%20Diagram%22%5D%20%7B%0A%20class%20Users%20%7B%0A%20%20private%20user_id%0A%20%20private%20email%0A%20%20private%20password%0A%20%20private%20name%0A%20%7D%0A%20class%20Customer%20%7B%0A%20%20%20private%20customer_id%0A%20%20%20private%20customer_name%0A%20%7D%0A%20class%20Owner%20%7B%0A%20%20private%20owner_id%0A%20%20private%20owner_name%0A%20%7D%0A%20class%20Spaces%20%7B%0A%20%20private%20space_id%0A%20%20private%20owner_id%0A%20%20private%20name%0A%20%20private%20price%0A%20%20private%20address%0A%20%7D%0A%20%20class%20Booking%20%7B%0A%20%20private%20booking_id%0A%20%20private%20customer_id%0A%20%20private%20space_id%20%0A%20%20private%20booking_start%0A%20%20private%20booking_end%0A%20%7D%0A%20Spaces%20-g-%3E%20Users%0A%20Booking%20-g-%3E%20Users%0A%20Booking%20-g-%3E%20Spaces%0A%20Owner%20-g-%3E%20Spaces%0A%20Customer%20-g-%3E%20Booking%0A%7D%0A</desc><g id="graph0" class="graph dotUmlFrame dotUmlFrameColorsteelblue" transform="scale(1 1) rotate(0) translate(4.32 298.32)"><polygon fill="#ffffff" stroke="transparent" points="-4.32,4.32 -4.32,-298.32 343.32,-298.32 343.32,4.32 -4.32,4.32"></polygon><text text-anchor="middle" x="33.00006103515625" y="-288" font-family="monospace,monospace" font-size="10.00" fill="#000000" svgjs:data="{&quot;leading&quot;:&quot;1.3&quot;}">DB Diagram</text><g id="node1" class=""><g id="a_node1"><a xlink:title=" "><polygon fill="none" stroke="#000000" points="6.5,-140 6.5,-158 71.5,-158 71.5,-140 6.5,-140"></polygon><text text-anchor="start" x="24.0025" y="-147" font-family="monospace,monospace" font-weight="bold" font-size="10.00" fill="#000000" svgjs:data="{&quot;leading&quot;:&quot;1.3&quot;}">Users</text><polygon fill="none" stroke="#000000" points="6.5,-86 6.5,-140 71.5,-140 71.5,-86 6.5,-86"></polygon><text text-anchor="start" x="9.5" y="-128" font-family="monospace,monospace" font-size="10.00" fill="#000000" svgjs:data="{&quot;leading&quot;:&quot;1.3&quot;}">- user_id</text><text text-anchor="start" x="9.5" y="-116" font-family="monospace,monospace" font-size="10.00" fill="#000000" svgjs:data="{&quot;leading&quot;:&quot;1.3&quot;}">- email</text><text text-anchor="start" x="9.5" y="-104" font-family="monospace,monospace" font-size="10.00" fill="#000000" svgjs:data="{&quot;leading&quot;:&quot;1.3&quot;}">- password</text><text text-anchor="start" x="9.5" y="-92" font-family="monospace,monospace" font-size="10.00" fill="#000000" svgjs:data="{&quot;leading&quot;:&quot;1.3&quot;}">- name</text><polygon fill="none" stroke="#000000" points="6.5,-80 6.5,-86 71.5,-86 71.5,-80 6.5,-80"></polygon></a></g></g><g id="node4" class=""><g id="a_node4"><a xlink:title=" "><polygon fill="none" stroke="#000000" points="128.5,-256 128.5,-274 193.5,-274 193.5,-256 128.5,-256"></polygon><text text-anchor="start" x="143.003" y="-263" font-family="monospace,monospace" font-weight="bold" font-size="10.00" fill="#000000" svgjs:data="{&quot;leading&quot;:&quot;1.3&quot;}">Spaces</text><polygon fill="none" stroke="#000000" points="128.5,-190 128.5,-256 193.5,-256 193.5,-190 128.5,-190"></polygon><text text-anchor="start" x="131.5" y="-244" font-family="monospace,monospace" font-size="10.00" fill="#000000" svgjs:data="{&quot;leading&quot;:&quot;1.3&quot;}">- space_id</text><text text-anchor="start" x="131.5" y="-232" font-family="monospace,monospace" font-size="10.00" fill="#000000" svgjs:data="{&quot;leading&quot;:&quot;1.3&quot;}">- owner_id</text><text text-anchor="start" x="131.5" y="-220" font-family="monospace,monospace" font-size="10.00" fill="#000000" svgjs:data="{&quot;leading&quot;:&quot;1.3&quot;}">- name</text><text text-anchor="start" x="131.5" y="-208" font-family="monospace,monospace" font-size="10.00" fill="#000000" svgjs:data="{&quot;leading&quot;:&quot;1.3&quot;}">- price</text><text text-anchor="start" x="131.5" y="-196" font-family="monospace,monospace" font-size="10.00" fill="#000000" svgjs:data="{&quot;leading&quot;:&quot;1.3&quot;}">- address</text><polygon fill="none" stroke="#000000" points="128.5,-184 128.5,-190 193.5,-190 193.5,-184 128.5,-184"></polygon></a></g></g><g id="edge1" class=""><g id="a_edge1"><a xlink:title=" "><path fill="none" stroke="#000000" d="M78.7932,-155.33C94.6662,-169.6416 112.6615,-185.8669 127.716,-199.4406"></path><polygon fill="none" stroke="#000000" points="80.9644,-152.575 71.1938,-148.478 76.2769,-157.7738 80.9644,-152.575"></polygon></a></g></g><g id="node5" class=""><g id="a_node5"><a xlink:title=" "><polygon fill="none" stroke="#000000" points="244.5,-146 244.5,-164 339.5,-164 339.5,-146 244.5,-146"></polygon><text text-anchor="start" x="271.0035" y="-153" font-family="monospace,monospace" font-weight="bold" font-size="10.00" fill="#000000" svgjs:data="{&quot;leading&quot;:&quot;1.3&quot;}">Booking</text><polygon fill="none" stroke="#000000" points="244.5,-80 244.5,-146 339.5,-146 339.5,-80 244.5,-80"></polygon><text text-anchor="start" x="247.5" y="-134" font-family="monospace,monospace" font-size="10.00" fill="#000000" svgjs:data="{&quot;leading&quot;:&quot;1.3&quot;}">- booking_id</text><text text-anchor="start" x="247.5" y="-122" font-family="monospace,monospace" font-size="10.00" fill="#000000" svgjs:data="{&quot;leading&quot;:&quot;1.3&quot;}">- customer_id</text><text text-anchor="start" x="247.5" y="-110" font-family="monospace,monospace" font-size="10.00" fill="#000000" svgjs:data="{&quot;leading&quot;:&quot;1.3&quot;}">- space_id</text><text text-anchor="start" x="247.5" y="-98" font-family="monospace,monospace" font-size="10.00" fill="#000000" svgjs:data="{&quot;leading&quot;:&quot;1.3&quot;}">- booking_start</text><text text-anchor="start" x="247.5" y="-86" font-family="monospace,monospace" font-size="10.00" fill="#000000" svgjs:data="{&quot;leading&quot;:&quot;1.3&quot;}">- booking_end</text><polygon fill="none" stroke="#000000" points="244.5,-74 244.5,-80 339.5,-80 339.5,-74 244.5,-74"></polygon></a></g></g><g id="edge2" class=""><g id="a_edge2"><a xlink:title=" "><path fill="none" stroke="#000000" d="M81.0949,-119C126.1653,-119 197.117,-119 243.9741,-119"></path><polygon fill="none" stroke="#000000" points="81.0574,-115.5001 71.0574,-119 81.0573,-122.5001 81.0574,-115.5001"></polygon></a></g></g><g id="node2" class=""><g id="a_node2"><a xlink:title=" "><polygon fill="none" stroke="#000000" points="113.5,-36 113.5,-54 208.5,-54 208.5,-36 113.5,-36"></polygon><text text-anchor="start" x="137.004" y="-43" font-family="monospace,monospace" font-weight="bold" font-size="10.00" fill="#000000" svgjs:data="{&quot;leading&quot;:&quot;1.3&quot;}">Customer</text><polygon fill="none" stroke="#000000" points="113.5,-6 113.5,-36 208.5,-36 208.5,-6 113.5,-6"></polygon><text text-anchor="start" x="116.5" y="-24" font-family="monospace,monospace" font-size="10.00" fill="#000000" svgjs:data="{&quot;leading&quot;:&quot;1.3&quot;}">- customer_id</text><text text-anchor="start" x="116.5" y="-12" font-family="monospace,monospace" font-size="10.00" fill="#000000" svgjs:data="{&quot;leading&quot;:&quot;1.3&quot;}">- customer_name</text><polygon fill="none" stroke="#000000" points="113.5,0 113.5,-6 208.5,-6 208.5,0 113.5,0"></polygon></a></g></g><g id="edge5" class=""><g id="a_edge5"><a xlink:title=" "><path fill="none" stroke="#000000" d="M199.0958,-54.1054C210.5015,-62.1156 223.2246,-71.0509 235.4937,-79.6673"></path><polygon fill="none" stroke="#000000" points="233.6983,-82.6833 243.8934,-85.5663 237.7214,-76.9549 233.6983,-82.6833"></polygon></a></g></g><g id="node3" class=""><g id="a_node3"><a xlink:title=" "><polygon fill="none" stroke="#000000" points=".5,-238 .5,-256 77.5,-256 77.5,-238 .5,-238"></polygon><text text-anchor="start" x="24.0025" y="-245" font-family="monospace,monospace" font-weight="bold" font-size="10.00" fill="#000000" svgjs:data="{&quot;leading&quot;:&quot;1.3&quot;}">Owner</text><polygon fill="none" stroke="#000000" points=".5,-208 .5,-238 77.5,-238 77.5,-208 .5,-208"></polygon><text text-anchor="start" x="3.5" y="-226" font-family="monospace,monospace" font-size="10.00" fill="#000000" svgjs:data="{&quot;leading&quot;:&quot;1.3&quot;}">- owner_id</text><text text-anchor="start" x="3.5" y="-214" font-family="monospace,monospace" font-size="10.00" fill="#000000" svgjs:data="{&quot;leading&quot;:&quot;1.3&quot;}">- owner_name</text><polygon fill="none" stroke="#000000" points=".5,-202 .5,-208 77.5,-208 77.5,-202 .5,-202"></polygon></a></g></g><g id="edge4" class=""><g id="a_edge4"><a xlink:title=" "><path fill="none" stroke="#000000" d="M77.1016,-229C89.9911,-229 104.4301,-229 117.6247,-229"></path><polygon fill="none" stroke="#000000" points="117.8864,-232.5001 127.8864,-229 117.8864,-225.5001 117.8864,-232.5001"></polygon></a></g></g><g id="edge3" class=""><g id="a_edge3"><a xlink:title=" "><path fill="none" stroke="#000000" d="M200.9916,-194.9994C214.5605,-183.6056 229.8143,-170.7971 243.8774,-158.9884"></path><polygon fill="none" stroke="#000000" points="198.6264,-192.4151 193.2189,-201.5261 203.1278,-197.7759 198.6264,-192.4151"></polygon></a></g></g><rect id="SvgjsRect10141" width="347.32" height="302.32" x="-4" y="-298" fill="none" stroke="steelblue" stroke-width="1"></rect><path id="SvgjsPath10171" d="M-4 -298 H70.0001220703125 V-291 L63.0001220703125 -284 L-4 -284 z" fill="none" stroke="steelblue" stroke-width="1"></path></g></svg></svg>